<?xml version="1.0" encoding="UTF-8" standalone="no"?>
<!-- Created with Inkscape (http://www.inkscape.org/) -->

<svg
   width="512"
   height="512"
   viewBox="0 0 512 512"
   version="1.1"
   id="svg1"
   inkscape:version="1.3.2 (091e20e, 2023-11-25, custom)"
   sodipodi:docname="aide_icon.svg"
   inkscape:export-filename="tips.png"
   inkscape:export-xdpi="96"
   inkscape:export-ydpi="96"
   xmlns:inkscape="http://www.inkscape.org/namespaces/inkscape"
   xmlns:sodipodi="http://sodipodi.sourceforge.net/DTD/sodipodi-0.dtd"
   xmlns="http://www.w3.org/2000/svg"
   xmlns:svg="http://www.w3.org/2000/svg">
  <sodipodi:namedview
     id="namedview1"
     pagecolor="#ffffff"
     bordercolor="#000000"
     borderopacity="0.25"
     inkscape:showpageshadow="2"
     inkscape:pageopacity="0.0"
     inkscape:pagecheckerboard="0"
     inkscape:deskcolor="#d1d1d1"
     inkscape:document-units="px"
     inkscape:zoom="1.2636772"
     inkscape:cx="265.09936"
     inkscape:cy="281.32185"
     inkscape:window-width="1920"
     inkscape:window-height="1171"
     inkscape:window-x="1176"
     inkscape:window-y="1351"
     inkscape:window-maximized="1"
     inkscape:current-layer="layer1" />
  <defs
     id="defs1" />
  <g
     inkscape:label="Calque 1"
     inkscape:groupmode="layer"
     id="layer1">
    <path
       d="M 256,50.888672 A 149.11115,171.89357 0 0 0 106.88867,222.7832 149.11115,171.89357 0 0 0 184.10547,372.97461 81.257378,81.009872 0 0 1 218.26367,338.83594 108.82658,124.77924 0 0 1 147.17383,221.85742 108.82658,124.77924 0 0 1 256,97.078125 108.82658,124.77924 0 0 1 364.82617,221.85742 108.82658,124.77924 0 0 1 293.95898,338.77734 81.257378,81.009872 0 0 1 327.96484,372.92578 149.11115,171.89357 0 0 0 405.11133,222.7832 149.11115,171.89357 0 0 0 256,50.888672 Z"
       style="fill:#fcaf01;stroke:#000000;stroke-width:1.77755;stroke-opacity:0"
       id="path9" />
    <rect
       style="fill:#fcaf01;fill-opacity:1;stroke:#000000;stroke-width:1.00213;stroke-opacity:0"
       id="rect3"
       width="39.375759"
       height="78.997871"
       x="175.04596"
       y="338.06671" />
    <rect
       style="display:inline;fill:#fcaf01;fill-opacity:1;stroke:#000000;stroke-width:0.942129;stroke-opacity:0"
       id="rect4"
       width="39.431507"
       height="79.057869"
       x="297.55066"
       y="337.30316" />
    <path
       d="m 214.67969,387.58984 v -46.58789 a 81.257378,81.009872 0 0 0 -30.57422,31.97266 149.11115,171.89357 0 0 0 30.57422,14.61523 z"
       style="display:inline;fill:#fcaf01;stroke:#000000;stroke-width:0.885238;stroke-opacity:0"
       id="path15" />
    <path
       d="m 297.32031,340.82227 v 46.76757 a 149.11115,171.89357 0 0 0 30.64453,-14.66406 81.257378,81.009872 0 0 0 -30.64453,-32.10351 z"
       style="display:inline;fill:#fcaf01;stroke:#000000;stroke-width:0.885238;stroke-opacity:0"
       id="path14" />
    <path
       d="M 312.91016,381.21289 A 62.766674,155.44588 0 0 1 256,471.75977 a 62.766674,155.44588 0 0 1 -56.91016,-90.54883 149.11115,171.89357 0 0 1 -14.98437,-8.23633 81.257378,81.009872 0 0 0 -9.42578,37.33203 81.257378,81.009872 0 0 0 81.25781,81.00977 81.257378,81.009872 0 0 0 81.25781,-81.00977 81.257378,81.009872 0 0 0 -9.23047,-37.38086 149.11115,171.89357 0 0 1 -15.05468,8.28711 z"
       style="display:inline;fill:#fcaf01;stroke:#000000;stroke-width:0.885238;stroke-opacity:0"
       id="path12" />
    <rect
       style="fill:#e28100;fill-opacity:1;stroke:#000000;stroke-width:1.05658;stroke-opacity:0"
       id="rect5"
       width="73.94342"
       height="28.943424"
       x="331.06357"
       y="262.1243"
       transform="rotate(-21.850453)" />
    <rect
       style="fill:#e28100;fill-opacity:1;stroke:#000000;stroke-width:1.05658;stroke-opacity:0"
       id="rect5-3"
       width="73.94342"
       height="28.943424"
       x="450.25662"
       y="122.15794"
       transform="rotate(8.8196401)" />
    <rect
       style="fill:#e28100;fill-opacity:1;stroke:#000000;stroke-width:0.829263;stroke-opacity:0"
       id="rect6"
       width="74.170738"
       height="29.170738"
       x="233.44724"
       y="273.96017"
       transform="rotate(-40.490677)" />
    <rect
       style="fill:#fcaf01;fill-opacity:1;stroke:#000000;stroke-width:0.767575;stroke-opacity:0"
       id="rect7"
       width="74.232422"
       height="29.232426"
       x="88.796883"
       y="-61.598492"
       transform="rotate(41.267528)" />
    <rect
       style="fill:#fcaf01;fill-opacity:1;stroke:#000000;stroke-width:0.937857;stroke-opacity:0"
       id="rect8"
       width="74.062141"
       height="29.062143"
       x="64.684456"
       y="84.91613"
       transform="rotate(16.059453)" />
    <rect
       style="fill:#fcaf01;fill-opacity:1;stroke:#000000;stroke-width:0.937857;stroke-opacity:0"
       id="rect8-8"
       width="74.062141"
       height="29.062143"
       x="-17.289993"
       y="204.604"
       transform="rotate(-7.9930623)" />
  </g>
</svg>
