<?xml version="1.0" encoding="UTF-8" standalone="no"?>
<!-- Created with Inkscape (http://www.inkscape.org/) -->

<svg
   width="135.46666mm"
   height="135.46666mm"
   viewBox="0 0 135.46666 135.46666"
   version="1.1"
   id="svg1"
   inkscape:version="1.3.2 (091e20e, 2023-11-25, custom)"
   sodipodi:docname="error.svg"
   inkscape:export-filename="error.png"
   inkscape:export-xdpi="96"
   inkscape:export-ydpi="96"
   xmlns:inkscape="http://www.inkscape.org/namespaces/inkscape"
   xmlns:sodipodi="http://sodipodi.sourceforge.net/DTD/sodipodi-0.dtd"
   xmlns="http://www.w3.org/2000/svg"
   xmlns:svg="http://www.w3.org/2000/svg">
  <sodipodi:namedview
     id="namedview1"
     pagecolor="#ffffff"
     bordercolor="#000000"
     borderopacity="0.25"
     inkscape:showpageshadow="2"
     inkscape:pageopacity="0.0"
     inkscape:pagecheckerboard="0"
     inkscape:deskcolor="#d1d1d1"
     inkscape:document-units="mm"
     inkscape:zoom="0.81513047"
     inkscape:cx="396.25558"
     inkscape:cy="318.35394"
     inkscape:window-width="1920"
     inkscape:window-height="1171"
     inkscape:window-x="1176"
     inkscape:window-y="1351"
     inkscape:window-maximized="1"
     inkscape:current-layer="layer1" />
  <defs
     id="defs1" />
  <g
     inkscape:label="Calque 1"
     inkscape:groupmode="layer"
     id="layer1">
    <path
       d="M 68.130208,5.4249919 A 62.705051,62.705051 0 0 0 5.4249919,68.130208 62.705051,62.705051 0 0 0 68.130208,130.83542 62.705051,62.705051 0 0 0 130.83542,68.130208 62.705051,62.705051 0 0 0 68.130208,5.4249919 Z m 0,9.2407791 A 53.464306,53.464306 0 0 1 121.59465,68.130208 53.464306,53.464306 0 0 1 68.130208,121.59465 53.464306,53.464306 0 0 1 14.665771,68.130208 53.464306,53.464306 0 0 1 68.130208,14.665771 Z"
       style="fill:#e74c3c;stroke:#000000;stroke-width:0.26698;stroke-opacity:0"
       id="path63" />
    <ellipse
       style="fill:#e74c3c;fill-opacity:1;stroke:#000000;stroke-width:0.250387;stroke-opacity:0"
       id="path61"
       cx="67.73333"
       cy="52.916668"
       rx="9.1352234"
       ry="26.333139" />
    <circle
       style="fill:#e74c3c;fill-opacity:1;stroke:#000000;stroke-width:0.291866;stroke-opacity:0"
       id="path62"
       cx="67.73333"
       cy="99.21875"
       r="9.1144838" />
  </g>
</svg>
